<svg width="864" height="576" xmlns="http://www.w3.org/2000/svg" xmlns:xlink="http://www.w3.org/1999/xlink" overflow="hidden"><defs><clipPath id="clip0"><rect x="0" y="0" width="864" height="576"/></clipPath></defs><g clip-path="url(#clip0)"><rect x="0" y="0" width="864" height="576" fill="#FFFFFF"/><text font-family="Arial,Arial_MSFontService,sans-serif" font-weight="400" font-size="9" transform="translate(827.301 569)">Public<tspan font-family="Calibri,Calibri_MSFontService,sans-serif" font-weight="700" font-size="319" x="-779.01" y="-99">OAS</tspan><tspan font-family="Calibri,Calibri_MSFontService,sans-serif" font-weight="700" font-size="319" x="-165.151" y="-99">S</tspan></text><path d="M591.803 553.999C634.566 554.45 697.586 349.277 652.572 149.515 757.005 153.574 766.907 207.685 810.571 222.566 816.873 168.905 752.953 111.186 670.127 106.226 710.64 42.1939 729.546 57.9765 795.716 16.9419 674.629-3.34991 661.575 60.2312 644.469 81.8758 621.512 62.9368 566.145 21.0001 525.632 60.2311 585.051 81.8757 585.051 80.523 616.11 117.048 531.484 111.637 440.105 196.863 423 267.208 476.567 248.72 499.074 204.529 571.546 175.218 551.29 214.449 540.487 221.213 539.136 290.205 571.096 243.309 576.048 236.996 626.914 160.338 647.62 345.67 553.541 552.646 591.803 553.999Z" stroke="#FFFFFF" stroke-width="6" stroke-miterlimit="8" fill="#2D6D9C" fill-rule="evenodd"/><rect x="811" y="554" width="53" height="22" fill="#FFFFFF"/></g></svg>